<svg width="24" height="24" viewBox="0 0 24 24" fill="none" xmlns="http://www.w3.org/2000/svg">
<path d="M10 1H14C16.3853 1 18.0737 1.00212 19.3531 1.17414C20.6038 1.34229 21.313 1.65611 21.8284 2.17157C22.3439 2.68704 22.6577 3.39621 22.8259 4.64689C22.9979 5.92634 23 7.61471 23 10V14C23 16.3853 22.9979 18.0737 22.8259 19.3531C22.6577 20.6038 22.3439 21.313 21.8284 21.8284C21.313 22.3439 20.6038 22.6577 19.3531 22.8259C18.0737 22.9979 16.3853 23 14 23H10C7.61471 23 5.92634 22.9979 4.64689 22.8259C3.39621 22.6577 2.68704 22.3439 2.17157 21.8284C1.65611 21.313 1.34229 20.6038 1.17414 19.3531C1.00212 18.0737 1 16.3853 1 14V10C1 7.61471 1.00212 5.92634 1.17414 4.64689C1.34229 3.39621 1.65611 2.68704 2.17157 2.17157C2.68704 1.65611 3.39621 1.34229 4.64689 1.17414C5.92634 1.00212 7.61471 1 10 1Z" stroke="black" stroke-width="2"/>
<line x1="7" y1="11" x2="17" y2="11" stroke="black" stroke-width="2"/>
<path d="M12 7L12 17" stroke="black" stroke-width="2"/>
</svg>
