<svg width="24" height="24" viewBox="0 0 24 24" fill="none" xmlns="http://www.w3.org/2000/svg">
<path d="M0.5 10C0.5 7.62884 0.501062 5.90077 0.6786 4.58026C0.854204 3.27414 1.19417 2.44187 1.81802 1.81802C2.44187 1.19417 3.27414 0.854204 4.58026 0.6786C5.90077 0.501062 7.62884 0.5 10 0.5H14C16.3712 0.5 18.0992 0.501062 19.4197 0.6786C20.7259 0.854204 21.5581 1.19417 22.182 1.81802C22.8058 2.44187 23.1458 3.27414 23.3214 4.58026C23.4989 5.90077 23.5 7.62884 23.5 10V14C23.5 16.3712 23.4989 18.0992 23.3214 19.4197C23.1458 20.7259 22.8058 21.5581 22.182 22.182C21.5581 22.8058 20.7259 23.1458 19.4197 23.3214C18.0992 23.4989 16.3712 23.5 14 23.5H10C7.62884 23.5 5.90077 23.4989 4.58026 23.3214C3.27414 23.1458 2.44187 22.8058 1.81802 22.182C1.19417 21.5581 0.854204 20.7259 0.6786 19.4197C0.501062 18.0992 0.5 16.3712 0.5 14V10Z" stroke="black"/>
<line x1="7" y1="11.5" x2="17" y2="11.5" stroke="black"/>
<path d="M12 7L12 17" stroke="black"/>
</svg>
