<svg width="25" height="25" viewBox="0 0 25 25" fill="none" xmlns="http://www.w3.org/2000/svg">
<mask id="path-1-inside-1" fill="white">
<path d="M0.0471744 11.9999C0.0211636 18.6164 5.38346 24.021 11.9999 24.047C14.3069 24.0561 16.5249 23.4183 18.4392 22.2003L22.971 24.0361C23.2496 24.1482 23.5678 24.085 23.7817 23.8728C23.9247 23.7309 24.002 23.5392 24.0028 23.3442C24.0031 23.2497 23.9855 23.1566 23.9499 23.065L22.1497 18.5188C23.3827 16.6142 24.0379 14.4012 24.047 12.0943C24.073 5.47781 18.7107 0.073188 12.0943 0.0471772C5.47781 0.0211665 0.0731851 5.38346 0.0471744 11.9999ZM22.547 12.0884C22.5386 14.2273 21.8975 16.2723 20.6922 18.0001C20.6032 18.1258 20.5577 18.2756 20.5571 18.4256C20.5567 18.5201 20.5743 18.6147 20.61 18.7048L21.9111 21.9889L18.6373 20.6621C18.4036 20.5681 18.138 20.5971 17.932 20.7388C16.1948 21.9305 14.1448 22.5554 12.0058 22.547C6.21585 22.5242 1.5244 17.7958 1.54716 12.0058C1.56992 6.21585 6.2984 1.5244 12.0884 1.54717C17.8783 1.56993 22.5698 6.29841 22.547 12.0884Z"/>
</mask>
<path d="M18.4392 22.2003L19.1901 20.3466L18.235 19.9597L17.3656 20.5129L18.4392 22.2003ZM22.971 24.0361L22.2201 25.8898L22.2244 25.8915L22.971 24.0361ZM23.9499 23.065L25.8139 22.34L25.8094 22.3286L23.9499 23.065ZM22.1497 18.5188L20.4708 17.432L19.9108 18.2971L20.2902 19.2552L22.1497 18.5188ZM20.6922 18.0001L22.3243 19.1561L22.3285 19.1503L22.3326 19.1444L20.6922 18.0001ZM20.61 18.7048L18.7501 19.4403L18.7506 19.4414L20.61 18.7048ZM21.9111 21.9889L21.1598 23.8425L25.4923 25.5984L23.7705 21.2523L21.9111 21.9889ZM18.6373 20.6621L19.3885 18.8085L19.3832 18.8064L18.6373 20.6621ZM17.932 20.7388L19.0633 22.388L19.0652 22.3868L17.932 20.7388ZM-1.95281 11.992C-1.98316 19.7131 4.27104 26.0166 11.992 26.047L12.0078 22.047C6.49588 22.0253 2.02549 17.5197 2.04716 12.0078L-1.95281 11.992ZM11.992 26.047C14.6767 26.0575 17.271 25.3141 19.5128 23.8877L17.3656 20.5129C15.7788 21.5225 13.937 22.0546 12.0078 22.047L11.992 26.047ZM17.6883 24.054L22.2201 25.8898L23.722 22.1824L19.1901 20.3466L17.6883 24.054ZM22.2244 25.8915C23.2398 26.3002 24.4064 26.0704 25.1903 25.2926L22.373 22.453C22.7293 22.0996 23.2594 21.9963 23.7177 22.1807L22.2244 25.8915ZM25.1903 25.2926C25.718 24.769 25.9999 24.0659 26.0027 23.352L22.0028 23.3363C22.0041 23.0124 22.1315 22.6927 22.373 22.453L25.1903 25.2926ZM26.0027 23.352C26.0041 22.9968 25.9366 22.6556 25.8139 22.34L22.0859 23.7899C22.0344 23.6576 22.0021 23.5026 22.0028 23.3363L26.0027 23.352ZM25.8094 22.3286L24.0092 17.7825L20.2902 19.2552L22.0903 23.8013L25.8094 22.3286ZM23.8286 19.6057C25.2726 17.3751 26.0364 14.7868 26.047 12.1021L22.047 12.0864C22.0394 14.0157 21.4928 15.8532 20.4708 17.432L23.8286 19.6057ZM26.047 12.1021C26.0773 4.38111 19.8231 -1.92245 12.1021 -1.95281L12.0864 2.04716C17.5983 2.06883 22.0687 6.57451 22.047 12.0864L26.047 12.1021ZM12.1021 -1.95281C4.38111 -1.98316 -1.92246 4.27104 -1.95281 11.992L2.04716 12.0078C2.06883 6.49589 6.57451 2.02549 12.0864 2.04716L12.1021 -1.95281ZM20.547 12.0805C20.5402 13.8201 20.0205 15.4674 19.0519 16.8558L22.3326 19.1444C23.7746 17.0773 24.537 14.6346 24.547 12.0962L20.547 12.0805ZM19.0601 16.8442C18.7243 17.3183 18.5592 17.8722 18.5571 18.4177L22.5571 18.4335C22.5561 18.6789 22.4822 18.9332 22.3243 19.1561L19.0601 16.8442ZM18.5571 18.4177C18.5557 18.7671 18.6211 19.114 18.7501 19.4403L22.4698 17.9693C22.5276 18.1153 22.5577 18.273 22.5571 18.4335L18.5571 18.4177ZM18.7506 19.4414L20.0517 22.7256L23.7705 21.2523L22.4694 17.9681L18.7506 19.4414ZM22.6623 20.1354L19.3885 18.8085L17.886 22.5156L21.1598 23.8425L22.6623 20.1354ZM19.3832 18.8064C18.5326 18.4644 17.561 18.5667 16.7988 19.0908L19.0652 22.3868C18.715 22.6275 18.2747 22.6718 17.8913 22.5177L19.3832 18.8064ZM16.8006 19.0895C15.4046 20.0472 13.7533 20.5539 12.0137 20.547L11.9979 24.547C14.5363 24.557 16.9849 23.8138 19.0633 22.388L16.8006 19.0895ZM12.0137 20.547C7.32827 20.5286 3.52873 16.6991 3.54715 12.0137L-0.452822 11.9979C-0.479926 18.8925 5.10343 24.5199 11.9979 24.547L12.0137 20.547ZM3.54715 12.0137C3.56557 7.32827 7.3951 3.52873 12.0805 3.54715L12.0962 -0.452819C5.20171 -0.479923 -0.425718 5.10343 -0.452822 11.9979L3.54715 12.0137ZM12.0805 3.54715C16.7659 3.56557 20.5654 7.39511 20.547 12.0805L24.547 12.0962C24.5741 5.20171 18.9907 -0.425715 12.0962 -0.452819L12.0805 3.54715Z" fill="black" mask="url(#path-1-inside-1)"/>
</svg>
