<svg width="24" height="26" viewBox="0 0 24 26" fill="none" xmlns="http://www.w3.org/2000/svg">
<path d="M12.1408 25L12.1408 24L12.1408 24L12.1408 25ZM2 19.5577L1.00011 19.5426L0.995444 19.8524L1.16667 20.1105L2 19.5577ZM22.2817 19.5577L23.115 20.1105L23.2862 19.8524L23.2816 19.5426L22.2817 19.5577ZM12.1408 2C14.3942 2 16.2113 3.81707 16.2113 6.07042H18.2113C18.2113 2.7125 15.4988 0 12.1408 0V2ZM16.2113 6.07042C16.2113 8.32377 14.3942 10.1408 12.1408 10.1408V12.1408C15.4988 12.1408 18.2113 9.42834 18.2113 6.07042H16.2113ZM12.1408 10.1408C9.88748 10.1408 8.07041 8.32377 8.07041 6.07042H6.07041C6.07041 9.42834 8.78291 12.1408 12.1408 12.1408V10.1408ZM8.07041 6.07042C8.07041 3.81707 9.88748 2 12.1408 2V0C8.78291 0 6.07041 2.7125 6.07041 6.07042H8.07041ZM12.1408 24C8.39729 24 4.90268 22.1246 2.83333 19.0049L1.16667 20.1105C3.60658 23.7887 7.72695 26 12.1408 26L12.1408 24ZM2.99989 19.5728C3.00715 19.0911 3.24824 18.5856 3.81435 18.0551C4.38468 17.5206 5.21578 17.0311 6.20769 16.6162C8.1956 15.7847 10.5872 15.3521 12.1408 15.3521V13.3521C10.3142 13.3521 7.66074 13.8406 5.43597 14.7711C4.32154 15.2372 3.25441 15.8389 2.44674 16.5957C1.63486 17.3566 1.0182 18.3426 1.00011 19.5426L2.99989 19.5728ZM12.1408 15.3521C13.6857 15.3521 16.0775 15.7846 18.068 16.6163C19.0612 17.0313 19.894 17.521 20.4657 18.0557C21.0333 18.5866 21.2746 19.092 21.2818 19.5728L23.2816 19.5426C23.2635 18.3417 22.6449 17.3556 21.8319 16.5951C21.0229 15.8384 19.9543 15.2369 18.8391 14.7709C16.6127 13.8407 13.9594 13.3521 12.1408 13.3521V15.3521ZM21.4484 19.0049C19.379 22.1246 15.8844 24 12.1408 24L12.1408 26C16.5547 26 20.6751 23.7887 23.115 20.1105L21.4484 19.0049Z" fill="black"/>
</svg>
